<svg width="48" height="48" viewBox="0 0 48 48" fill="none" xmlns="http://www.w3.org/2000/svg">
<rect width="48" height="48" rx="24" fill="#F5E6C5"/>
<g clip-path="url(#clip0_771_7110)">
<path d="M23.76 41.1119H23.7023C23.6578 41.1119 23.62 41.1119 23.5823 41.1074C20.3423 41.063 18.2223 40.3519 17.0156 39.7608C15.6934 39.1141 14.8 37.8585 14.6245 36.4008L12.3423 17.4096C11.0778 16.363 10.8 15.2563 10.8 14.4874C10.8 13.7608 11.0489 12.7096 12.1867 11.6985C12.4 10.5519 13.3156 9.10965 16.1956 8.05632C18.2556 7.3052 20.9556 6.88965 23.8 6.88965C26.6445 6.88965 29.3445 7.3052 31.4023 8.05632C34.2823 9.10965 35.2 10.5519 35.4112 11.6985C36.5489 12.7096 36.7978 13.7608 36.7978 14.4874C36.7978 15.2563 36.52 16.363 35.2556 17.4096L32.9734 36.403C32.7978 37.8608 31.9045 39.1163 30.5823 39.763C29.3756 40.3541 27.2578 41.0652 24.0156 41.1097C23.9778 41.1119 23.94 41.1141 23.9023 41.1141H23.76V41.1119Z" fill="white"/>
<path d="M32.7998 21.1733L31.5243 31.78C29.1665 32.4222 26.5509 32.7778 23.7998 32.7778C21.0487 32.7778 18.4331 32.4222 16.0754 31.78L14.7998 21.1733C17.4731 22.0556 20.5398 22.5556 23.7998 22.5556C27.0598 22.5556 30.1265 22.0556 32.7998 21.1733Z" fill="#F6B66E"/>
<path d="M33.6889 15.5559L23.8 16.8759L13.9111 15.5559L16.3911 36.1893C16.4934 37.0448 17.0245 37.787 17.7978 38.1648C18.8934 38.7004 20.7711 39.3048 23.6956 39.3315C23.7311 39.3337 23.7645 39.3315 23.8 39.3315C23.8356 39.3315 23.8689 39.3315 23.9045 39.3315C26.8289 39.3004 28.7067 38.6982 29.8022 38.1626C30.5756 37.7848 31.1067 37.0426 31.2089 36.187L33.6889 15.5537V15.5559Z" stroke="#F39945" stroke-miterlimit="10"/>
<path d="M23.8001 18.4449C29.998 18.4449 35.0223 16.6729 35.0223 14.4871C35.0223 12.3013 29.998 10.5293 23.8001 10.5293C17.6022 10.5293 12.5779 12.3013 12.5779 14.4871C12.5779 16.6729 17.6022 18.4449 23.8001 18.4449Z" fill="white" stroke="#F39945" stroke-miterlimit="10"/>
<path d="M23.8 15.8981C29.2615 15.8981 33.6889 14.2794 33.6889 12.2825C33.6889 10.2857 29.2615 8.66699 23.8 8.66699C18.3385 8.66699 13.9111 10.2857 13.9111 12.2825C13.9111 14.2794 18.3385 15.8981 23.8 15.8981Z" fill="white" stroke="#F39945" stroke-miterlimit="10"/>
<path d="M18.5775 13.3525L18.7997 10.7036C18.7997 10.7036 16.1952 10.9436 16.2752 12.0281C16.3552 13.1125 18.5775 13.3525 18.5775 13.3525Z" fill="#F39945"/>
</g>
<defs>
<clipPath id="clip0_771_7110">
<rect width="26" height="34.2222" fill="white" transform="translate(10.8 6.88916)"/>
</clipPath>
</defs>
</svg>
