<svg width="80" height="80" viewBox="0 0 80 80" fill="none" xmlns="http://www.w3.org/2000/svg">
<g clip-path="url(#clip0_771_7029)">
<rect width="80" height="80" rx="40" fill="#F5E6C5"/>
<g clip-path="url(#clip1_771_7029)">
<path d="M39.6 68.5195H39.5037C39.4296 68.5195 39.3667 68.5195 39.3037 68.5121C33.9037 68.438 30.3704 67.2528 28.3593 66.2676C26.1556 65.1898 24.6667 63.0972 24.3741 60.6676L20.5704 29.0158C18.463 27.2713 18 25.4269 18 24.1454C18 22.9343 18.4148 21.1824 20.3111 19.4972C20.6667 17.5861 22.1926 15.1824 26.9926 13.4269C30.4259 12.175 34.9259 11.4824 39.6667 11.4824C44.4074 11.4824 48.9074 12.175 52.337 13.4269C57.137 15.1824 58.6667 17.5861 59.0185 19.4972C60.9148 21.1824 61.3296 22.9343 61.3296 24.1454C61.3296 25.4269 60.8667 27.2713 58.7593 29.0158L54.9556 60.6713C54.663 63.1009 53.1741 65.1935 50.9704 66.2713C48.9593 67.2565 45.4296 68.4417 40.0259 68.5158C39.963 68.5195 39.9 68.5232 39.837 68.5232H39.6V68.5195Z" fill="white"/>
<path d="M54.6665 35.2891L52.5406 52.9668C48.6109 54.0372 44.2517 54.6298 39.6665 54.6298C35.0813 54.6298 30.7221 54.0372 26.7924 52.9668L24.6665 35.2891C29.1221 36.7594 34.2332 37.5928 39.6665 37.5928C45.0998 37.5928 50.2109 36.7594 54.6665 35.2891Z" fill="#F6B66E"/>
<path d="M56.148 25.9266L39.6665 28.1266L23.1851 25.9266L27.3184 60.3154C27.4888 61.7414 28.3739 62.9784 29.6628 63.608C31.4888 64.5006 34.6184 65.508 39.4925 65.5525C39.5517 65.5562 39.6073 65.5525 39.6665 65.5525C39.7258 65.5525 39.7814 65.5525 39.8406 65.5525C44.7147 65.5006 47.8443 64.4969 49.6702 63.6043C50.9591 62.9747 51.8443 61.7377 52.0147 60.3117L56.148 25.9229V25.9266Z" stroke="#F39945" stroke-width="1.66667" stroke-miterlimit="10"/>
<path d="M39.6666 30.7414C49.9964 30.7414 58.3703 27.7882 58.3703 24.1451C58.3703 20.5021 49.9964 17.5488 39.6666 17.5488C29.3368 17.5488 20.9629 20.5021 20.9629 24.1451C20.9629 27.7882 29.3368 30.7414 39.6666 30.7414Z" fill="white" stroke="#F39945" stroke-width="1.66667" stroke-miterlimit="10"/>
<path d="M39.6665 26.4967C48.769 26.4967 56.148 23.7988 56.148 20.4707C56.148 17.1427 48.769 14.4448 39.6665 14.4448C30.5641 14.4448 23.1851 17.1427 23.1851 20.4707C23.1851 23.7988 30.5641 26.4967 39.6665 26.4967Z" fill="white" stroke="#F39945" stroke-width="1.66667" stroke-miterlimit="10"/>
<path d="M30.9626 22.2537L31.333 17.8389C31.333 17.8389 26.9922 18.2389 27.1256 20.0463C27.2589 21.8537 30.9626 22.2537 30.9626 22.2537Z" fill="#F39945"/>
</g>
<rect opacity="0.8" width="80" height="80" fill="#F39945"/>
<rect x="37.5" y="25" width="5" height="30" rx="2.5" fill="white"/>
<rect x="55" y="37.5" width="5" height="30" rx="2.5" transform="rotate(90 55 37.5)" fill="white"/>
</g>
<defs>
<clipPath id="clip0_771_7029">
<rect width="80" height="80" rx="40" fill="white"/>
</clipPath>
<clipPath id="clip1_771_7029">
<rect width="43.3333" height="57.037" fill="white" transform="translate(18 11.4819)"/>
</clipPath>
</defs>
</svg>
