<svg width="16" height="16" viewBox="0 0 16 16" fill="none" xmlns="http://www.w3.org/2000/svg">
<path d="M12.4595 4.53883C12.7353 4.26298 12.7353 3.81574 12.4595 3.53989C12.1836 3.26405 11.7364 3.26405 11.4605 3.53989L7.99967 7.00074L4.53883 3.53989C4.26298 3.26405 3.81574 3.26405 3.53989 3.53989C3.26405 3.81574 3.26405 4.26298 3.53989 4.53883L7.00074 7.99967L3.53989 11.4605C3.26405 11.7364 3.26405 12.1836 3.53989 12.4595C3.81574 12.7353 4.26298 12.7353 4.53883 12.4595L7.99967 8.99861L11.4605 12.4595C11.7364 12.7353 12.1836 12.7353 12.4595 12.4595C12.7353 12.1836 12.7353 11.7364 12.4595 11.4605L8.99861 7.99967L12.4595 4.53883Z" fill="#646361"/>
</svg>
