<svg width="16" height="16" viewBox="0 0 16 16" fill="none" xmlns="http://www.w3.org/2000/svg">
<path d="M12.4599 4.53883C12.7358 4.26298 12.7358 3.81574 12.4599 3.53989C12.1841 3.26405 11.7369 3.26405 11.461 3.53989L8.00016 7.00074L4.53932 3.53989C4.26347 3.26405 3.81623 3.26405 3.54038 3.53989C3.26453 3.81574 3.26453 4.26298 3.54038 4.53883L7.00123 7.99967L3.54038 11.4605C3.26453 11.7364 3.26453 12.1836 3.54038 12.4595C3.81623 12.7353 4.26347 12.7353 4.53932 12.4595L8.00016 8.99861L11.461 12.4595C11.7369 12.7353 12.1841 12.7353 12.4599 12.4595C12.7358 12.1836 12.7358 11.7364 12.4599 11.4605L8.9991 7.99967L12.4599 4.53883Z" fill="white"/>
</svg>
