<svg width="20" height="20" viewBox="0 0 20 20" fill="none" xmlns="http://www.w3.org/2000/svg">
<path d="M15.5746 5.67378C15.9194 5.32897 15.9194 4.76992 15.5746 4.42511C15.2298 4.0803 14.6707 4.0803 14.3259 4.42511L9.99984 8.75117L5.67378 4.42511C5.32897 4.0803 4.76992 4.0803 4.42511 4.42511C4.0803 4.76992 4.0803 5.32897 4.42511 5.67378L8.75117 9.99984L4.42511 14.3259C4.0803 14.6707 4.0803 15.2298 4.42511 15.5746C4.76992 15.9194 5.32897 15.9194 5.67378 15.5746L9.99984 11.2485L14.3259 15.5746C14.6707 15.9194 15.2298 15.9194 15.5746 15.5746C15.9194 15.2298 15.9194 14.6707 15.5746 14.3259L11.2485 9.99984L15.5746 5.67378Z" fill="#242221"/>
<path d="M15.5746 5.67378C15.9194 5.32897 15.9194 4.76992 15.5746 4.42511C15.2298 4.0803 14.6707 4.0803 14.3259 4.42511L9.99984 8.75117L5.67378 4.42511C5.32897 4.0803 4.76992 4.0803 4.42511 4.42511C4.0803 4.76992 4.0803 5.32897 4.42511 5.67378L8.75117 9.99984L4.42511 14.3259C4.0803 14.6707 4.0803 15.2298 4.42511 15.5746C4.76992 15.9194 5.32897 15.9194 5.67378 15.5746L9.99984 11.2485L14.3259 15.5746C14.6707 15.9194 15.2298 15.9194 15.5746 15.5746C15.9194 15.2298 15.9194 14.6707 15.5746 14.3259L11.2485 9.99984L15.5746 5.67378Z" fill="black" fill-opacity="0.2"/>
<path d="M15.5746 5.67378C15.9194 5.32897 15.9194 4.76992 15.5746 4.42511C15.2298 4.0803 14.6707 4.0803 14.3259 4.42511L9.99984 8.75117L5.67378 4.42511C5.32897 4.0803 4.76992 4.0803 4.42511 4.42511C4.0803 4.76992 4.0803 5.32897 4.42511 5.67378L8.75117 9.99984L4.42511 14.3259C4.0803 14.6707 4.0803 15.2298 4.42511 15.5746C4.76992 15.9194 5.32897 15.9194 5.67378 15.5746L9.99984 11.2485L14.3259 15.5746C14.6707 15.9194 15.2298 15.9194 15.5746 15.5746C15.9194 15.2298 15.9194 14.6707 15.5746 14.3259L11.2485 9.99984L15.5746 5.67378Z" fill="black" fill-opacity="0.2"/>
<path d="M15.5746 5.67378C15.9194 5.32897 15.9194 4.76992 15.5746 4.42511C15.2298 4.0803 14.6707 4.0803 14.3259 4.42511L9.99984 8.75117L5.67378 4.42511C5.32897 4.0803 4.76992 4.0803 4.42511 4.42511C4.0803 4.76992 4.0803 5.32897 4.42511 5.67378L8.75117 9.99984L4.42511 14.3259C4.0803 14.6707 4.0803 15.2298 4.42511 15.5746C4.76992 15.9194 5.32897 15.9194 5.67378 15.5746L9.99984 11.2485L14.3259 15.5746C14.6707 15.9194 15.2298 15.9194 15.5746 15.5746C15.9194 15.2298 15.9194 14.6707 15.5746 14.3259L11.2485 9.99984L15.5746 5.67378Z" fill="black" fill-opacity="0.2"/>
<path d="M15.5746 5.67378C15.9194 5.32897 15.9194 4.76992 15.5746 4.42511C15.2298 4.0803 14.6707 4.0803 14.3259 4.42511L9.99984 8.75117L5.67378 4.42511C5.32897 4.0803 4.76992 4.0803 4.42511 4.42511C4.0803 4.76992 4.0803 5.32897 4.42511 5.67378L8.75117 9.99984L4.42511 14.3259C4.0803 14.6707 4.0803 15.2298 4.42511 15.5746C4.76992 15.9194 5.32897 15.9194 5.67378 15.5746L9.99984 11.2485L14.3259 15.5746C14.6707 15.9194 15.2298 15.9194 15.5746 15.5746C15.9194 15.2298 15.9194 14.6707 15.5746 14.3259L11.2485 9.99984L15.5746 5.67378Z" fill="black" fill-opacity="0.2"/>
</svg>
