<svg width="16" height="16" viewBox="0 0 16 16" fill="none" xmlns="http://www.w3.org/2000/svg">
<path d="M12.4597 4.53932C12.7355 4.26347 12.7355 3.81623 12.4597 3.54038C12.1839 3.26453 11.7366 3.26453 11.4608 3.54038L7.99992 7.00123L4.53907 3.54038C4.26322 3.26453 3.81599 3.26453 3.54014 3.54038C3.26429 3.81623 3.26429 4.26347 3.54014 4.53932L7.00098 8.00016L3.54014 11.461C3.26429 11.7369 3.26429 12.1841 3.54014 12.4599C3.81599 12.7358 4.26322 12.7358 4.53907 12.4599L7.99992 8.9991L11.4608 12.4599C11.7366 12.7358 12.1839 12.7358 12.4597 12.4599C12.7355 12.1841 12.7355 11.7369 12.4597 11.461L8.99885 8.00016L12.4597 4.53932Z" fill="#646361"/>
</svg>
