<svg width="32" height="32" viewBox="0 0 32 32" fill="none" xmlns="http://www.w3.org/2000/svg">
<circle cx="16" cy="16" r="15.5" stroke="white"/>
<path d="M20.4597 12.5393C20.7355 12.2635 20.7355 11.8162 20.4597 11.5404C20.1839 11.2645 19.7366 11.2645 19.4608 11.5404L15.9999 15.0012L12.5391 11.5404C12.2632 11.2645 11.816 11.2645 11.5401 11.5404C11.2643 11.8162 11.2643 12.2635 11.5401 12.5393L15.001 16.0002L11.5401 19.461C11.2643 19.7369 11.2643 20.1841 11.5401 20.4599C11.816 20.7358 12.2632 20.7358 12.5391 20.4599L15.9999 16.9991L19.4608 20.4599C19.7366 20.7358 20.1839 20.7358 20.4597 20.4599C20.7355 20.1841 20.7355 19.7369 20.4597 19.461L16.9989 16.0002L20.4597 12.5393Z" fill="white"/>
</svg>
