<svg width="78" height="40" viewBox="0 0 78 40" fill="none" xmlns="http://www.w3.org/2000/svg">
<path fill-rule="evenodd" clip-rule="evenodd" d="M25.6601 6.03444L25.1481 7.57049C22.8621 14.43 19.4097 21.484 17.9625 23.9623C17.9033 24.0636 17.844 24.164 17.7846 24.2633C21.5927 28.1295 25.0081 30.0466 27.7944 30.9659C30.8713 31.9811 33.2908 31.8159 34.7981 31.5816L36.3836 31.3352L36.8714 34.5391L35.2859 34.7855C33.441 35.0722 30.4865 35.2642 26.7984 34.0474C23.5838 32.9868 19.896 30.8838 15.9417 26.9815C13.4269 30.2229 10.8122 31.775 8.3967 31.8641C5.16617 31.9833 3 29.4526 3 26.5914C3 23.9116 5.036 21.4365 7.58957 20.4191C9.97525 19.4685 12.8577 19.7272 15.4424 21.8881C16.9081 19.2601 20.0179 12.806 22.1075 6.53606L22.6194 5L25.6601 6.03444ZM13.6815 24.6357C11.8653 22.9489 10.0842 22.9097 8.76663 23.4346C7.14195 24.082 6.20841 25.5384 6.20841 26.5914C6.20841 27.7808 7.02475 28.671 8.27964 28.6247C9.44219 28.5818 11.403 27.7137 13.6815 24.6357Z" fill="#F6B66E"/>
<path fill-rule="evenodd" clip-rule="evenodd" d="M51.521 5.97631L51.0526 7.52647C50.3364 9.89638 49.1433 13.1549 47.8778 16.1303C46.6418 19.036 45.2394 21.9094 44.0734 23.3349C41.9739 25.902 38.1911 28.439 34.2777 27.183C33.2871 26.8651 32.577 26.2636 32.1302 25.4997C30.1061 27.3094 27.5641 28.0199 25.5097 27.005C24.3172 26.4159 23.4994 25.3127 23.2243 23.9126C22.9573 22.5542 23.2087 20.9981 23.9206 19.3507C25.0637 16.7056 26.6924 15.2082 28.4397 14.5555C30.1352 13.9222 31.7606 14.1549 32.8135 14.625C33.3346 14.8577 33.7591 15.2306 34.0923 15.6564C34.4309 15.0632 34.7736 14.5091 35.0998 14.0158L35.9909 12.6681L38.6588 14.4687L37.7677 15.8164C36.6854 17.4533 35.5002 19.6888 34.9938 21.5653C34.7363 22.5191 34.706 23.1965 34.8 23.6027C34.8646 23.8821 34.9593 24.0006 35.2491 24.0935C37.2747 24.7437 39.8022 23.4684 41.6002 21.2701C42.4298 20.2557 43.6722 17.8076 44.93 14.8504C46.1583 11.9627 47.3081 8.8166 47.984 6.57995L48.4524 5.02979L51.521 5.97631ZM29.5523 17.596C28.7693 17.8884 27.7223 18.6546 26.861 20.6478C26.3201 21.8994 26.2699 22.7657 26.3712 23.2812C26.4643 23.755 26.6848 23.9772 26.919 24.0929C27.452 24.3562 28.9172 24.3391 30.5134 22.5631C31.7245 21.2156 32.0305 19.908 31.9785 18.9701C31.9518 18.4881 31.8317 18.1093 31.6978 17.8581C31.5909 17.6574 31.506 17.5902 31.4957 17.5809C31.1186 17.4198 30.3717 17.2899 29.5523 17.596Z" fill="#242221"/>
<path fill-rule="evenodd" clip-rule="evenodd" d="M51.521 5.97631L51.0526 7.52647C50.3364 9.89638 49.1433 13.1549 47.8778 16.1303C46.6418 19.036 45.2394 21.9094 44.0734 23.3349C41.9739 25.902 38.1911 28.439 34.2777 27.183C33.2871 26.8651 32.577 26.2636 32.1302 25.4997C30.1061 27.3094 27.5641 28.0199 25.5097 27.005C24.3172 26.4159 23.4994 25.3127 23.2243 23.9126C22.9573 22.5542 23.2087 20.9981 23.9206 19.3507C25.0637 16.7056 26.6924 15.2082 28.4397 14.5555C30.1352 13.9222 31.7606 14.1549 32.8135 14.625C33.3346 14.8577 33.7591 15.2306 34.0923 15.6564C34.4309 15.0632 34.7736 14.5091 35.0998 14.0158L35.9909 12.6681L38.6588 14.4687L37.7677 15.8164C36.6854 17.4533 35.5002 19.6888 34.9938 21.5653C34.7363 22.5191 34.706 23.1965 34.8 23.6027C34.8646 23.8821 34.9593 24.0006 35.2491 24.0935C37.2747 24.7437 39.8022 23.4684 41.6002 21.2701C42.4298 20.2557 43.6722 17.8076 44.93 14.8504C46.1583 11.9627 47.3081 8.8166 47.984 6.57995L48.4524 5.02979L51.521 5.97631ZM29.5523 17.596C28.7693 17.8884 27.7223 18.6546 26.861 20.6478C26.3201 21.8994 26.2699 22.7657 26.3712 23.2812C26.4643 23.755 26.6848 23.9772 26.919 24.0929C27.452 24.3562 28.9172 24.3391 30.5134 22.5631C31.7245 21.2156 32.0305 19.908 31.9785 18.9701C31.9518 18.4881 31.8317 18.1093 31.6978 17.8581C31.5909 17.6574 31.506 17.5902 31.4957 17.5809C31.1186 17.4198 30.3717 17.2899 29.5523 17.596Z" fill="black" fill-opacity="0.2"/>
<path fill-rule="evenodd" clip-rule="evenodd" d="M51.521 5.97631L51.0526 7.52647C50.3364 9.89638 49.1433 13.1549 47.8778 16.1303C46.6418 19.036 45.2394 21.9094 44.0734 23.3349C41.9739 25.902 38.1911 28.439 34.2777 27.183C33.2871 26.8651 32.577 26.2636 32.1302 25.4997C30.1061 27.3094 27.5641 28.0199 25.5097 27.005C24.3172 26.4159 23.4994 25.3127 23.2243 23.9126C22.9573 22.5542 23.2087 20.9981 23.9206 19.3507C25.0637 16.7056 26.6924 15.2082 28.4397 14.5555C30.1352 13.9222 31.7606 14.1549 32.8135 14.625C33.3346 14.8577 33.7591 15.2306 34.0923 15.6564C34.4309 15.0632 34.7736 14.5091 35.0998 14.0158L35.9909 12.6681L38.6588 14.4687L37.7677 15.8164C36.6854 17.4533 35.5002 19.6888 34.9938 21.5653C34.7363 22.5191 34.706 23.1965 34.8 23.6027C34.8646 23.8821 34.9593 24.0006 35.2491 24.0935C37.2747 24.7437 39.8022 23.4684 41.6002 21.2701C42.4298 20.2557 43.6722 17.8076 44.93 14.8504C46.1583 11.9627 47.3081 8.8166 47.984 6.57995L48.4524 5.02979L51.521 5.97631ZM29.5523 17.596C28.7693 17.8884 27.7223 18.6546 26.861 20.6478C26.3201 21.8994 26.2699 22.7657 26.3712 23.2812C26.4643 23.755 26.6848 23.9772 26.919 24.0929C27.452 24.3562 28.9172 24.3391 30.5134 22.5631C31.7245 21.2156 32.0305 19.908 31.9785 18.9701C31.9518 18.4881 31.8317 18.1093 31.6978 17.8581C31.5909 17.6574 31.506 17.5902 31.4957 17.5809C31.1186 17.4198 30.3717 17.2899 29.5523 17.596Z" fill="black" fill-opacity="0.2"/>
<path fill-rule="evenodd" clip-rule="evenodd" d="M51.521 5.97631L51.0526 7.52647C50.3364 9.89638 49.1433 13.1549 47.8778 16.1303C46.6418 19.036 45.2394 21.9094 44.0734 23.3349C41.9739 25.902 38.1911 28.439 34.2777 27.183C33.2871 26.8651 32.577 26.2636 32.1302 25.4997C30.1061 27.3094 27.5641 28.0199 25.5097 27.005C24.3172 26.4159 23.4994 25.3127 23.2243 23.9126C22.9573 22.5542 23.2087 20.9981 23.9206 19.3507C25.0637 16.7056 26.6924 15.2082 28.4397 14.5555C30.1352 13.9222 31.7606 14.1549 32.8135 14.625C33.3346 14.8577 33.7591 15.2306 34.0923 15.6564C34.4309 15.0632 34.7736 14.5091 35.0998 14.0158L35.9909 12.6681L38.6588 14.4687L37.7677 15.8164C36.6854 17.4533 35.5002 19.6888 34.9938 21.5653C34.7363 22.5191 34.706 23.1965 34.8 23.6027C34.8646 23.8821 34.9593 24.0006 35.2491 24.0935C37.2747 24.7437 39.8022 23.4684 41.6002 21.2701C42.4298 20.2557 43.6722 17.8076 44.93 14.8504C46.1583 11.9627 47.3081 8.8166 47.984 6.57995L48.4524 5.02979L51.521 5.97631ZM29.5523 17.596C28.7693 17.8884 27.7223 18.6546 26.861 20.6478C26.3201 21.8994 26.2699 22.7657 26.3712 23.2812C26.4643 23.755 26.6848 23.9772 26.919 24.0929C27.452 24.3562 28.9172 24.3391 30.5134 22.5631C31.7245 21.2156 32.0305 19.908 31.9785 18.9701C31.9518 18.4881 31.8317 18.1093 31.6978 17.8581C31.5909 17.6574 31.506 17.5902 31.4957 17.5809C31.1186 17.4198 30.3717 17.2899 29.5523 17.596Z" fill="black" fill-opacity="0.2"/>
<path fill-rule="evenodd" clip-rule="evenodd" d="M51.521 5.97631L51.0526 7.52647C50.3364 9.89638 49.1433 13.1549 47.8778 16.1303C46.6418 19.036 45.2394 21.9094 44.0734 23.3349C41.9739 25.902 38.1911 28.439 34.2777 27.183C33.2871 26.8651 32.577 26.2636 32.1302 25.4997C30.1061 27.3094 27.5641 28.0199 25.5097 27.005C24.3172 26.4159 23.4994 25.3127 23.2243 23.9126C22.9573 22.5542 23.2087 20.9981 23.9206 19.3507C25.0637 16.7056 26.6924 15.2082 28.4397 14.5555C30.1352 13.9222 31.7606 14.1549 32.8135 14.625C33.3346 14.8577 33.7591 15.2306 34.0923 15.6564C34.4309 15.0632 34.7736 14.5091 35.0998 14.0158L35.9909 12.6681L38.6588 14.4687L37.7677 15.8164C36.6854 17.4533 35.5002 19.6888 34.9938 21.5653C34.7363 22.5191 34.706 23.1965 34.8 23.6027C34.8646 23.8821 34.9593 24.0006 35.2491 24.0935C37.2747 24.7437 39.8022 23.4684 41.6002 21.2701C42.4298 20.2557 43.6722 17.8076 44.93 14.8504C46.1583 11.9627 47.3081 8.8166 47.984 6.57995L48.4524 5.02979L51.521 5.97631ZM29.5523 17.596C28.7693 17.8884 27.7223 18.6546 26.861 20.6478C26.3201 21.8994 26.2699 22.7657 26.3712 23.2812C26.4643 23.755 26.6848 23.9772 26.919 24.0929C27.452 24.3562 28.9172 24.3391 30.5134 22.5631C31.7245 21.2156 32.0305 19.908 31.9785 18.9701C31.9518 18.4881 31.8317 18.1093 31.6978 17.8581C31.5909 17.6574 31.506 17.5902 31.4957 17.5809C31.1186 17.4198 30.3717 17.2899 29.5523 17.596Z" fill="black" fill-opacity="0.2"/>
<path fill-rule="evenodd" clip-rule="evenodd" d="M51.4074 6.02621L47.6227 17.526C47.5015 17.9716 47.2585 18.5892 47.0272 19.177C46.9731 19.3146 46.9196 19.4505 46.8685 19.5823C46.5553 20.3891 46.2415 21.2444 46.04 22.0493C45.8287 22.8926 45.7955 23.4771 45.8687 23.8127C45.8841 23.8834 45.9013 23.9277 45.9133 23.9526C45.9247 23.9761 45.9326 23.9852 45.9349 23.9878C45.9369 23.9899 45.9442 23.998 45.9659 24.0107C45.9889 24.0241 46.0368 24.0477 46.1222 24.0704C46.2754 24.1111 46.5815 24.1161 47.0834 23.9374C47.571 23.7637 48.1187 23.4601 48.6697 23.0711C49.2147 22.6863 49.7185 22.2494 50.1164 21.8498C50.5394 21.425 50.7585 21.1268 50.8125 21.03L51.5999 19.6179L54.3952 21.2091L53.6078 22.6212C53.337 23.1068 52.8716 23.6534 52.3783 24.1489C51.8598 24.6696 51.2152 25.2285 50.5075 25.7282C49.8056 26.2237 48.9962 26.6933 48.1499 26.9946C47.3178 27.2909 46.3131 27.4728 45.3064 27.2054C44.6326 27.0264 44.0358 26.6909 43.5718 26.1803C43.113 25.6756 42.8607 25.0845 42.7355 24.5104C42.4974 23.4192 42.6845 22.2325 42.9296 21.2541C43.1842 20.2372 43.5626 19.2204 43.8816 18.3987C43.9587 18.1999 44.0296 18.0189 44.0941 17.8542C44.3243 17.2666 44.4728 16.8874 44.5322 16.6549L44.5459 16.6013L48.3628 5.00342L51.4074 6.02621Z" fill="#242221"/>
<path fill-rule="evenodd" clip-rule="evenodd" d="M51.4074 6.02621L47.6227 17.526C47.5015 17.9716 47.2585 18.5892 47.0272 19.177C46.9731 19.3146 46.9196 19.4505 46.8685 19.5823C46.5553 20.3891 46.2415 21.2444 46.04 22.0493C45.8287 22.8926 45.7955 23.4771 45.8687 23.8127C45.8841 23.8834 45.9013 23.9277 45.9133 23.9526C45.9247 23.9761 45.9326 23.9852 45.9349 23.9878C45.9369 23.9899 45.9442 23.998 45.9659 24.0107C45.9889 24.0241 46.0368 24.0477 46.1222 24.0704C46.2754 24.1111 46.5815 24.1161 47.0834 23.9374C47.571 23.7637 48.1187 23.4601 48.6697 23.0711C49.2147 22.6863 49.7185 22.2494 50.1164 21.8498C50.5394 21.425 50.7585 21.1268 50.8125 21.03L51.5999 19.6179L54.3952 21.2091L53.6078 22.6212C53.337 23.1068 52.8716 23.6534 52.3783 24.1489C51.8598 24.6696 51.2152 25.2285 50.5075 25.7282C49.8056 26.2237 48.9962 26.6933 48.1499 26.9946C47.3178 27.2909 46.3131 27.4728 45.3064 27.2054C44.6326 27.0264 44.0358 26.6909 43.5718 26.1803C43.113 25.6756 42.8607 25.0845 42.7355 24.5104C42.4974 23.4192 42.6845 22.2325 42.9296 21.2541C43.1842 20.2372 43.5626 19.2204 43.8816 18.3987C43.9587 18.1999 44.0296 18.0189 44.0941 17.8542C44.3243 17.2666 44.4728 16.8874 44.5322 16.6549L44.5459 16.6013L48.3628 5.00342L51.4074 6.02621Z" fill="black" fill-opacity="0.2"/>
<path fill-rule="evenodd" clip-rule="evenodd" d="M51.4074 6.02621L47.6227 17.526C47.5015 17.9716 47.2585 18.5892 47.0272 19.177C46.9731 19.3146 46.9196 19.4505 46.8685 19.5823C46.5553 20.3891 46.2415 21.2444 46.04 22.0493C45.8287 22.8926 45.7955 23.4771 45.8687 23.8127C45.8841 23.8834 45.9013 23.9277 45.9133 23.9526C45.9247 23.9761 45.9326 23.9852 45.9349 23.9878C45.9369 23.9899 45.9442 23.998 45.9659 24.0107C45.9889 24.0241 46.0368 24.0477 46.1222 24.0704C46.2754 24.1111 46.5815 24.1161 47.0834 23.9374C47.571 23.7637 48.1187 23.4601 48.6697 23.0711C49.2147 22.6863 49.7185 22.2494 50.1164 21.8498C50.5394 21.425 50.7585 21.1268 50.8125 21.03L51.5999 19.6179L54.3952 21.2091L53.6078 22.6212C53.337 23.1068 52.8716 23.6534 52.3783 24.1489C51.8598 24.6696 51.2152 25.2285 50.5075 25.7282C49.8056 26.2237 48.9962 26.6933 48.1499 26.9946C47.3178 27.2909 46.3131 27.4728 45.3064 27.2054C44.6326 27.0264 44.0358 26.6909 43.5718 26.1803C43.113 25.6756 42.8607 25.0845 42.7355 24.5104C42.4974 23.4192 42.6845 22.2325 42.9296 21.2541C43.1842 20.2372 43.5626 19.2204 43.8816 18.3987C43.9587 18.1999 44.0296 18.0189 44.0941 17.8542C44.3243 17.2666 44.4728 16.8874 44.5322 16.6549L44.5459 16.6013L48.3628 5.00342L51.4074 6.02621Z" fill="black" fill-opacity="0.2"/>
<path fill-rule="evenodd" clip-rule="evenodd" d="M51.4074 6.02621L47.6227 17.526C47.5015 17.9716 47.2585 18.5892 47.0272 19.177C46.9731 19.3146 46.9196 19.4505 46.8685 19.5823C46.5553 20.3891 46.2415 21.2444 46.04 22.0493C45.8287 22.8926 45.7955 23.4771 45.8687 23.8127C45.8841 23.8834 45.9013 23.9277 45.9133 23.9526C45.9247 23.9761 45.9326 23.9852 45.9349 23.9878C45.9369 23.9899 45.9442 23.998 45.9659 24.0107C45.9889 24.0241 46.0368 24.0477 46.1222 24.0704C46.2754 24.1111 46.5815 24.1161 47.0834 23.9374C47.571 23.7637 48.1187 23.4601 48.6697 23.0711C49.2147 22.6863 49.7185 22.2494 50.1164 21.8498C50.5394 21.425 50.7585 21.1268 50.8125 21.03L51.5999 19.6179L54.3952 21.2091L53.6078 22.6212C53.337 23.1068 52.8716 23.6534 52.3783 24.1489C51.8598 24.6696 51.2152 25.2285 50.5075 25.7282C49.8056 26.2237 48.9962 26.6933 48.1499 26.9946C47.3178 27.2909 46.3131 27.4728 45.3064 27.2054C44.6326 27.0264 44.0358 26.6909 43.5718 26.1803C43.113 25.6756 42.8607 25.0845 42.7355 24.5104C42.4974 23.4192 42.6845 22.2325 42.9296 21.2541C43.1842 20.2372 43.5626 19.2204 43.8816 18.3987C43.9587 18.1999 44.0296 18.0189 44.0941 17.8542C44.3243 17.2666 44.4728 16.8874 44.5322 16.6549L44.5459 16.6013L48.3628 5.00342L51.4074 6.02621Z" fill="black" fill-opacity="0.2"/>
<path fill-rule="evenodd" clip-rule="evenodd" d="M51.4074 6.02621L47.6227 17.526C47.5015 17.9716 47.2585 18.5892 47.0272 19.177C46.9731 19.3146 46.9196 19.4505 46.8685 19.5823C46.5553 20.3891 46.2415 21.2444 46.04 22.0493C45.8287 22.8926 45.7955 23.4771 45.8687 23.8127C45.8841 23.8834 45.9013 23.9277 45.9133 23.9526C45.9247 23.9761 45.9326 23.9852 45.9349 23.9878C45.9369 23.9899 45.9442 23.998 45.9659 24.0107C45.9889 24.0241 46.0368 24.0477 46.1222 24.0704C46.2754 24.1111 46.5815 24.1161 47.0834 23.9374C47.571 23.7637 48.1187 23.4601 48.6697 23.0711C49.2147 22.6863 49.7185 22.2494 50.1164 21.8498C50.5394 21.425 50.7585 21.1268 50.8125 21.03L51.5999 19.6179L54.3952 21.2091L53.6078 22.6212C53.337 23.1068 52.8716 23.6534 52.3783 24.1489C51.8598 24.6696 51.2152 25.2285 50.5075 25.7282C49.8056 26.2237 48.9962 26.6933 48.1499 26.9946C47.3178 27.2909 46.3131 27.4728 45.3064 27.2054C44.6326 27.0264 44.0358 26.6909 43.5718 26.1803C43.113 25.6756 42.8607 25.0845 42.7355 24.5104C42.4974 23.4192 42.6845 22.2325 42.9296 21.2541C43.1842 20.2372 43.5626 19.2204 43.8816 18.3987C43.9587 18.1999 44.0296 18.0189 44.0941 17.8542C44.3243 17.2666 44.4728 16.8874 44.5322 16.6549L44.5459 16.6013L48.3628 5.00342L51.4074 6.02621Z" fill="black" fill-opacity="0.2"/>
<path fill-rule="evenodd" clip-rule="evenodd" d="M59.4394 6.11328L55.0454 19.2736L55.0348 19.3019C54.2249 21.4578 54.0119 22.9141 54.1171 23.716C54.1556 24.0092 54.2241 24.1206 54.2429 24.1464C54.2684 24.1571 54.3324 24.1747 54.4624 24.1747C55.3873 24.1747 56.2859 23.7335 57.0963 23.0456C57.9049 22.3591 58.483 21.5439 58.726 21.1081L59.5134 19.696L62.3087 21.2872L61.5213 22.6993C61.1147 23.4284 60.3007 24.5592 59.1603 25.5273C58.0217 26.494 56.4146 27.4163 54.4624 27.4163C53.5793 27.4163 52.7022 27.1506 52.0173 26.4825C51.3536 25.835 51.0466 24.9808 50.9365 24.1421C50.7248 22.5283 51.1704 20.4609 52.0244 18.1804L56.3993 5.07715L59.4394 6.11328ZM54.2291 24.1383C54.2295 24.1379 54.2335 24.1398 54.2398 24.145C54.2318 24.1413 54.2286 24.1387 54.2291 24.1383Z" fill="#242221"/>
<path fill-rule="evenodd" clip-rule="evenodd" d="M59.4394 6.11328L55.0454 19.2736L55.0348 19.3019C54.2249 21.4578 54.0119 22.9141 54.1171 23.716C54.1556 24.0092 54.2241 24.1206 54.2429 24.1464C54.2684 24.1571 54.3324 24.1747 54.4624 24.1747C55.3873 24.1747 56.2859 23.7335 57.0963 23.0456C57.9049 22.3591 58.483 21.5439 58.726 21.1081L59.5134 19.696L62.3087 21.2872L61.5213 22.6993C61.1147 23.4284 60.3007 24.5592 59.1603 25.5273C58.0217 26.494 56.4146 27.4163 54.4624 27.4163C53.5793 27.4163 52.7022 27.1506 52.0173 26.4825C51.3536 25.835 51.0466 24.9808 50.9365 24.1421C50.7248 22.5283 51.1704 20.4609 52.0244 18.1804L56.3993 5.07715L59.4394 6.11328ZM54.2291 24.1383C54.2295 24.1379 54.2335 24.1398 54.2398 24.145C54.2318 24.1413 54.2286 24.1387 54.2291 24.1383Z" fill="black" fill-opacity="0.2"/>
<path fill-rule="evenodd" clip-rule="evenodd" d="M59.4394 6.11328L55.0454 19.2736L55.0348 19.3019C54.2249 21.4578 54.0119 22.9141 54.1171 23.716C54.1556 24.0092 54.2241 24.1206 54.2429 24.1464C54.2684 24.1571 54.3324 24.1747 54.4624 24.1747C55.3873 24.1747 56.2859 23.7335 57.0963 23.0456C57.9049 22.3591 58.483 21.5439 58.726 21.1081L59.5134 19.696L62.3087 21.2872L61.5213 22.6993C61.1147 23.4284 60.3007 24.5592 59.1603 25.5273C58.0217 26.494 56.4146 27.4163 54.4624 27.4163C53.5793 27.4163 52.7022 27.1506 52.0173 26.4825C51.3536 25.835 51.0466 24.9808 50.9365 24.1421C50.7248 22.5283 51.1704 20.4609 52.0244 18.1804L56.3993 5.07715L59.4394 6.11328ZM54.2291 24.1383C54.2295 24.1379 54.2335 24.1398 54.2398 24.145C54.2318 24.1413 54.2286 24.1387 54.2291 24.1383Z" fill="black" fill-opacity="0.2"/>
<path fill-rule="evenodd" clip-rule="evenodd" d="M59.4394 6.11328L55.0454 19.2736L55.0348 19.3019C54.2249 21.4578 54.0119 22.9141 54.1171 23.716C54.1556 24.0092 54.2241 24.1206 54.2429 24.1464C54.2684 24.1571 54.3324 24.1747 54.4624 24.1747C55.3873 24.1747 56.2859 23.7335 57.0963 23.0456C57.9049 22.3591 58.483 21.5439 58.726 21.1081L59.5134 19.696L62.3087 21.2872L61.5213 22.6993C61.1147 23.4284 60.3007 24.5592 59.1603 25.5273C58.0217 26.494 56.4146 27.4163 54.4624 27.4163C53.5793 27.4163 52.7022 27.1506 52.0173 26.4825C51.3536 25.835 51.0466 24.9808 50.9365 24.1421C50.7248 22.5283 51.1704 20.4609 52.0244 18.1804L56.3993 5.07715L59.4394 6.11328ZM54.2291 24.1383C54.2295 24.1379 54.2335 24.1398 54.2398 24.145C54.2318 24.1413 54.2286 24.1387 54.2291 24.1383Z" fill="black" fill-opacity="0.2"/>
<path fill-rule="evenodd" clip-rule="evenodd" d="M59.4394 6.11328L55.0454 19.2736L55.0348 19.3019C54.2249 21.4578 54.0119 22.9141 54.1171 23.716C54.1556 24.0092 54.2241 24.1206 54.2429 24.1464C54.2684 24.1571 54.3324 24.1747 54.4624 24.1747C55.3873 24.1747 56.2859 23.7335 57.0963 23.0456C57.9049 22.3591 58.483 21.5439 58.726 21.1081L59.5134 19.696L62.3087 21.2872L61.5213 22.6993C61.1147 23.4284 60.3007 24.5592 59.1603 25.5273C58.0217 26.494 56.4146 27.4163 54.4624 27.4163C53.5793 27.4163 52.7022 27.1506 52.0173 26.4825C51.3536 25.835 51.0466 24.9808 50.9365 24.1421C50.7248 22.5283 51.1704 20.4609 52.0244 18.1804L56.3993 5.07715L59.4394 6.11328ZM54.2291 24.1383C54.2295 24.1379 54.2335 24.1398 54.2398 24.145C54.2318 24.1413 54.2286 24.1387 54.2291 24.1383Z" fill="black" fill-opacity="0.2"/>
<path fill-rule="evenodd" clip-rule="evenodd" d="M71.649 18.8914C71.2375 19.7528 70.4816 20.4884 69.5423 21.1124C68.0179 22.1251 66.2023 22.7168 64.637 22.9391C63.851 23.0507 63.0716 23.0775 62.3787 22.9914C62.3515 22.988 62.324 22.9844 62.296 22.9805C62.3037 23.01 62.3118 23.0395 62.3203 23.0689C62.4466 23.5052 62.7151 23.8059 63.2132 24.0192C63.7636 24.2549 64.5773 24.3641 65.6066 24.2672C67.6713 24.0729 70.0832 23.0992 71.7375 21.7524L72.9867 20.7355L74.9997 23.2596L73.7506 24.2765C71.6002 26.0273 68.5901 27.242 65.9042 27.4948C64.5581 27.6216 63.1643 27.519 61.9611 27.0037C60.7056 26.466 59.6744 25.4763 59.2409 23.9789C58.4789 21.3467 59.5012 18.9244 60.9878 17.2372C62.454 15.5731 64.5828 14.3645 66.6033 14.1752C67.6186 14.0801 68.586 14.1602 69.4216 14.428C70.2362 14.6891 71.0666 15.1787 71.5642 16.0093C72.1085 16.9179 72.0922 17.9638 71.649 18.8914ZM68.4515 17.5179C68.1055 17.407 67.5814 17.3391 66.8996 17.4029C65.8262 17.5035 64.4098 18.2286 63.3842 19.3926C63.2672 19.5253 63.1583 19.6602 63.0576 19.7969C63.3678 19.8097 63.7516 19.7914 64.1903 19.7291C65.3692 19.5616 66.7166 19.11 67.7796 18.4038C68.2977 18.0597 68.5589 17.7814 68.6819 17.6096C68.6255 17.5814 68.5503 17.5495 68.4515 17.5179Z" fill="#242221"/>
<path fill-rule="evenodd" clip-rule="evenodd" d="M71.649 18.8914C71.2375 19.7528 70.4816 20.4884 69.5423 21.1124C68.0179 22.1251 66.2023 22.7168 64.637 22.9391C63.851 23.0507 63.0716 23.0775 62.3787 22.9914C62.3515 22.988 62.324 22.9844 62.296 22.9805C62.3037 23.01 62.3118 23.0395 62.3203 23.0689C62.4466 23.5052 62.7151 23.8059 63.2132 24.0192C63.7636 24.2549 64.5773 24.3641 65.6066 24.2672C67.6713 24.0729 70.0832 23.0992 71.7375 21.7524L72.9867 20.7355L74.9997 23.2596L73.7506 24.2765C71.6002 26.0273 68.5901 27.242 65.9042 27.4948C64.5581 27.6216 63.1643 27.519 61.9611 27.0037C60.7056 26.466 59.6744 25.4763 59.2409 23.9789C58.4789 21.3467 59.5012 18.9244 60.9878 17.2372C62.454 15.5731 64.5828 14.3645 66.6033 14.1752C67.6186 14.0801 68.586 14.1602 69.4216 14.428C70.2362 14.6891 71.0666 15.1787 71.5642 16.0093C72.1085 16.9179 72.0922 17.9638 71.649 18.8914ZM68.4515 17.5179C68.1055 17.407 67.5814 17.3391 66.8996 17.4029C65.8262 17.5035 64.4098 18.2286 63.3842 19.3926C63.2672 19.5253 63.1583 19.6602 63.0576 19.7969C63.3678 19.8097 63.7516 19.7914 64.1903 19.7291C65.3692 19.5616 66.7166 19.11 67.7796 18.4038C68.2977 18.0597 68.5589 17.7814 68.6819 17.6096C68.6255 17.5814 68.5503 17.5495 68.4515 17.5179Z" fill="black" fill-opacity="0.2"/>
<path fill-rule="evenodd" clip-rule="evenodd" d="M71.649 18.8914C71.2375 19.7528 70.4816 20.4884 69.5423 21.1124C68.0179 22.1251 66.2023 22.7168 64.637 22.9391C63.851 23.0507 63.0716 23.0775 62.3787 22.9914C62.3515 22.988 62.324 22.9844 62.296 22.9805C62.3037 23.01 62.3118 23.0395 62.3203 23.0689C62.4466 23.5052 62.7151 23.8059 63.2132 24.0192C63.7636 24.2549 64.5773 24.3641 65.6066 24.2672C67.6713 24.0729 70.0832 23.0992 71.7375 21.7524L72.9867 20.7355L74.9997 23.2596L73.7506 24.2765C71.6002 26.0273 68.5901 27.242 65.9042 27.4948C64.5581 27.6216 63.1643 27.519 61.9611 27.0037C60.7056 26.466 59.6744 25.4763 59.2409 23.9789C58.4789 21.3467 59.5012 18.9244 60.9878 17.2372C62.454 15.5731 64.5828 14.3645 66.6033 14.1752C67.6186 14.0801 68.586 14.1602 69.4216 14.428C70.2362 14.6891 71.0666 15.1787 71.5642 16.0093C72.1085 16.9179 72.0922 17.9638 71.649 18.8914ZM68.4515 17.5179C68.1055 17.407 67.5814 17.3391 66.8996 17.4029C65.8262 17.5035 64.4098 18.2286 63.3842 19.3926C63.2672 19.5253 63.1583 19.6602 63.0576 19.7969C63.3678 19.8097 63.7516 19.7914 64.1903 19.7291C65.3692 19.5616 66.7166 19.11 67.7796 18.4038C68.2977 18.0597 68.5589 17.7814 68.6819 17.6096C68.6255 17.5814 68.5503 17.5495 68.4515 17.5179Z" fill="black" fill-opacity="0.2"/>
<path fill-rule="evenodd" clip-rule="evenodd" d="M71.649 18.8914C71.2375 19.7528 70.4816 20.4884 69.5423 21.1124C68.0179 22.1251 66.2023 22.7168 64.637 22.9391C63.851 23.0507 63.0716 23.0775 62.3787 22.9914C62.3515 22.988 62.324 22.9844 62.296 22.9805C62.3037 23.01 62.3118 23.0395 62.3203 23.0689C62.4466 23.5052 62.7151 23.8059 63.2132 24.0192C63.7636 24.2549 64.5773 24.3641 65.6066 24.2672C67.6713 24.0729 70.0832 23.0992 71.7375 21.7524L72.9867 20.7355L74.9997 23.2596L73.7506 24.2765C71.6002 26.0273 68.5901 27.242 65.9042 27.4948C64.5581 27.6216 63.1643 27.519 61.9611 27.0037C60.7056 26.466 59.6744 25.4763 59.2409 23.9789C58.4789 21.3467 59.5012 18.9244 60.9878 17.2372C62.454 15.5731 64.5828 14.3645 66.6033 14.1752C67.6186 14.0801 68.586 14.1602 69.4216 14.428C70.2362 14.6891 71.0666 15.1787 71.5642 16.0093C72.1085 16.9179 72.0922 17.9638 71.649 18.8914ZM68.4515 17.5179C68.1055 17.407 67.5814 17.3391 66.8996 17.4029C65.8262 17.5035 64.4098 18.2286 63.3842 19.3926C63.2672 19.5253 63.1583 19.6602 63.0576 19.7969C63.3678 19.8097 63.7516 19.7914 64.1903 19.7291C65.3692 19.5616 66.7166 19.11 67.7796 18.4038C68.2977 18.0597 68.5589 17.7814 68.6819 17.6096C68.6255 17.5814 68.5503 17.5495 68.4515 17.5179Z" fill="black" fill-opacity="0.2"/>
<path fill-rule="evenodd" clip-rule="evenodd" d="M71.649 18.8914C71.2375 19.7528 70.4816 20.4884 69.5423 21.1124C68.0179 22.1251 66.2023 22.7168 64.637 22.9391C63.851 23.0507 63.0716 23.0775 62.3787 22.9914C62.3515 22.988 62.324 22.9844 62.296 22.9805C62.3037 23.01 62.3118 23.0395 62.3203 23.0689C62.4466 23.5052 62.7151 23.8059 63.2132 24.0192C63.7636 24.2549 64.5773 24.3641 65.6066 24.2672C67.6713 24.0729 70.0832 23.0992 71.7375 21.7524L72.9867 20.7355L74.9997 23.2596L73.7506 24.2765C71.6002 26.0273 68.5901 27.242 65.9042 27.4948C64.5581 27.6216 63.1643 27.519 61.9611 27.0037C60.7056 26.466 59.6744 25.4763 59.2409 23.9789C58.4789 21.3467 59.5012 18.9244 60.9878 17.2372C62.454 15.5731 64.5828 14.3645 66.6033 14.1752C67.6186 14.0801 68.586 14.1602 69.4216 14.428C70.2362 14.6891 71.0666 15.1787 71.5642 16.0093C72.1085 16.9179 72.0922 17.9638 71.649 18.8914ZM68.4515 17.5179C68.1055 17.407 67.5814 17.3391 66.8996 17.4029C65.8262 17.5035 64.4098 18.2286 63.3842 19.3926C63.2672 19.5253 63.1583 19.6602 63.0576 19.7969C63.3678 19.8097 63.7516 19.7914 64.1903 19.7291C65.3692 19.5616 66.7166 19.11 67.7796 18.4038C68.2977 18.0597 68.5589 17.7814 68.6819 17.6096C68.6255 17.5814 68.5503 17.5495 68.4515 17.5179Z" fill="black" fill-opacity="0.2"/>
<path fill-rule="evenodd" clip-rule="evenodd" d="M41.6937 12.3794L43.2452 12.7915C48.2702 14.1262 53.5513 14.1262 58.5763 12.7915L60.1278 12.3794L60.9435 15.5145L59.392 15.9266C53.8323 17.4033 47.9892 17.4033 42.4294 15.9266L40.8779 15.5145L41.6937 12.3794Z" fill="#242221"/>
<path fill-rule="evenodd" clip-rule="evenodd" d="M41.6937 12.3794L43.2452 12.7915C48.2702 14.1262 53.5513 14.1262 58.5763 12.7915L60.1278 12.3794L60.9435 15.5145L59.392 15.9266C53.8323 17.4033 47.9892 17.4033 42.4294 15.9266L40.8779 15.5145L41.6937 12.3794Z" fill="black" fill-opacity="0.2"/>
<path fill-rule="evenodd" clip-rule="evenodd" d="M41.6937 12.3794L43.2452 12.7915C48.2702 14.1262 53.5513 14.1262 58.5763 12.7915L60.1278 12.3794L60.9435 15.5145L59.392 15.9266C53.8323 17.4033 47.9892 17.4033 42.4294 15.9266L40.8779 15.5145L41.6937 12.3794Z" fill="black" fill-opacity="0.2"/>
<path fill-rule="evenodd" clip-rule="evenodd" d="M41.6937 12.3794L43.2452 12.7915C48.2702 14.1262 53.5513 14.1262 58.5763 12.7915L60.1278 12.3794L60.9435 15.5145L59.392 15.9266C53.8323 17.4033 47.9892 17.4033 42.4294 15.9266L40.8779 15.5145L41.6937 12.3794Z" fill="black" fill-opacity="0.2"/>
<path fill-rule="evenodd" clip-rule="evenodd" d="M41.6937 12.3794L43.2452 12.7915C48.2702 14.1262 53.5513 14.1262 58.5763 12.7915L60.1278 12.3794L60.9435 15.5145L59.392 15.9266C53.8323 17.4033 47.9892 17.4033 42.4294 15.9266L40.8779 15.5145L41.6937 12.3794Z" fill="black" fill-opacity="0.2"/>
</svg>
