<svg width="48" height="48" viewBox="0 0 48 48" fill="none" xmlns="http://www.w3.org/2000/svg">
<rect width="48" height="48" rx="24" fill="#F5E6C5"/>
<path d="M26.3353 27.2317C26.0212 28.2476 25.275 29.1336 24.2116 29.1336H24.05C22.8584 29.1336 21.879 28.1421 22.0269 26.9597C22.113 26.2721 22.2289 25.7449 22.3748 25.3781C22.6483 24.6797 23.3531 23.8791 24.4892 22.9765L25.641 22.0578C26.0197 21.7676 26.3248 21.4506 26.5562 21.1068C26.977 20.5158 27.1874 19.8657 27.1874 19.1565C27.1874 18.3398 26.9507 17.5984 26.4773 16.9322C26.0145 16.2552 25.1624 15.9167 23.9211 15.9167C22.7009 15.9167 21.833 16.3304 21.3176 17.1578C21.231 17.2996 21.1519 17.4423 21.0803 17.5859C20.5295 18.6895 19.5604 19.7367 18.3271 19.7367C17.0577 19.7367 16.0075 18.6669 16.3078 17.4335C16.7645 15.5584 17.7085 14.1555 19.14 13.225C20.3813 12.4083 21.9066 12 23.716 12C26.0934 12 28.0657 12.5803 29.6331 13.7408C31.211 14.9013 32 16.6206 32 18.8986C32 20.2955 31.6581 21.4721 30.9744 22.4285C30.5746 23.0087 29.8067 23.7502 28.6706 24.6528L27.5503 25.5393C26.9402 26.0228 26.5352 26.587 26.3353 27.2317ZM26.4615 33.6709C26.4615 34.9572 25.3968 36 24.1105 36C22.8241 36 21.7594 34.9572 21.7594 33.6709C21.7594 32.3846 22.8241 31.3418 24.1105 31.3418C25.3968 31.3418 26.4615 32.3846 26.4615 33.6709Z" fill="#F6B66E"/>
</svg>
