<svg width="156" height="65" viewBox="0 0 156 65" fill="none" xmlns="http://www.w3.org/2000/svg">
  <path fill-rule="evenodd" clip-rule="evenodd" d="M48.8825 3.04847L47.7791 6.32539C42.8517 20.9589 35.4105 36.0075 32.2911 41.2945C32.1636 41.5107 32.0357 41.7248 31.9077 41.9366C40.1158 50.1846 47.4774 54.2745 53.4829 56.2356C60.1148 58.4013 65.3299 58.0488 68.5786 57.5491L71.9961 57.0234L73.0475 63.8585L69.63 64.3841C65.6535 64.9958 59.2854 65.4053 51.3362 62.8094C44.4074 60.5468 36.4586 56.0604 27.9355 47.7355C22.5151 54.6505 16.8794 57.9617 11.6731 58.1518C4.70997 58.406 0.0410156 53.0073 0.0410156 46.9034C0.0410156 41.1864 4.4294 35.9063 9.93336 33.7357C15.0755 31.7078 21.2884 32.2596 26.8593 36.8697C30.0186 31.2632 36.7214 17.4944 41.2253 4.1186L42.3287 0.841675L48.8825 3.04847ZM23.0639 42.7311C19.1493 39.1327 15.3103 39.0489 12.4704 40.1689C8.96857 41.5499 6.95642 44.6569 6.95642 46.9034C6.95642 49.4408 8.71597 51.3397 11.4207 51.241C13.9265 51.1495 18.1528 49.2977 23.0639 42.7311Z" fill="#F6B66E"/>
  <path fill-rule="evenodd" clip-rule="evenodd" d="M104.623 2.92452L103.614 6.23154C102.07 11.2873 99.4984 18.2388 96.7706 24.5863C94.1066 30.7853 91.0838 36.915 88.5707 39.9563C84.0454 45.4327 75.892 50.845 67.457 48.1655C65.3219 47.4872 63.7913 46.2041 62.8282 44.5744C58.4655 48.4351 52.9864 49.9509 48.5584 47.7857C45.9881 46.5289 44.2255 44.1754 43.6324 41.1885C43.057 38.2906 43.5988 34.971 45.1333 31.4566C47.5971 25.8136 51.1076 22.6192 54.8738 21.2268C58.5282 19.8758 62.0316 20.3721 64.3011 21.3752C65.4242 21.8715 66.3393 22.6671 67.0574 23.5755C67.7871 22.3098 68.5259 21.1279 69.2289 20.0754L71.1496 17.2003L76.9 21.0416L74.9793 23.9168C72.6466 27.4088 70.092 32.1779 69.0004 36.1809C68.4455 38.2159 68.3801 39.661 68.5827 40.5275C68.7221 41.1235 68.9262 41.3763 69.5507 41.5746C73.9168 42.9616 79.3645 40.241 83.2399 35.5512C85.0281 33.3871 87.7058 28.1646 90.417 21.8559C93.0644 15.6956 95.5428 8.98381 96.9995 4.21229L98.0091 0.905273L104.623 2.92452ZM57.2718 27.7131C55.5842 28.3371 53.3275 29.9716 51.471 34.2237C50.3052 36.8937 50.197 38.7419 50.4154 39.8416C50.6161 40.8524 51.0912 41.3263 51.5962 41.5732C52.7449 42.135 55.903 42.0985 59.3435 38.3097C61.9538 35.4351 62.6135 32.6454 62.5013 30.6446C62.4437 29.6164 62.1849 28.8083 61.8964 28.2723C61.6659 27.8441 61.4829 27.7008 61.4607 27.6809C60.6479 27.3372 59.038 27.0601 57.2718 27.7131Z" fill="#282828"/>
  <path fill-rule="evenodd" clip-rule="evenodd" d="M104.378 3.03194L96.2203 27.5648C95.959 28.5153 95.4352 29.833 94.9367 31.0869C94.82 31.3804 94.7047 31.6705 94.5945 31.9515C93.9194 33.6728 93.2432 35.4974 92.8087 37.2144C92.3535 39.0135 92.2818 40.2605 92.4396 40.9764C92.4728 41.1274 92.5099 41.2217 92.5358 41.2749C92.5603 41.3251 92.5773 41.3444 92.5824 41.35C92.5866 41.3545 92.6025 41.3718 92.6492 41.3988C92.6988 41.4274 92.8021 41.4778 92.986 41.5261C93.3163 41.613 93.976 41.6237 95.0577 41.2424C96.1089 40.8719 97.2894 40.2242 98.4769 39.3944C99.6516 38.5735 100.738 37.6414 101.595 36.789C102.507 35.8826 102.979 35.2466 103.095 35.04L104.793 32.0275L110.818 35.422L109.12 38.4345C108.537 39.4705 107.534 40.6366 106.47 41.6936C105.353 42.8044 103.964 43.9968 102.438 45.0629C100.925 46.12 99.1806 47.1217 97.3565 47.7646C95.563 48.3967 93.3975 48.7847 91.2276 48.2143C89.7754 47.8324 88.489 47.1166 87.4888 46.0273C86.5 44.9505 85.9562 43.6896 85.6863 42.4649C85.1732 40.137 85.5765 37.6053 86.1046 35.518C86.6536 33.3488 87.4691 31.1794 88.1566 29.4265C88.3229 29.0025 88.4757 28.6163 88.6147 28.265C89.1108 27.0114 89.4309 26.2026 89.559 25.7065L89.5885 25.5921L97.8155 0.849976L104.378 3.03194Z" fill="#282828"/>
  <path fill-rule="evenodd" clip-rule="evenodd" d="M121.689 3.2164L112.219 31.2917L112.196 31.3522C110.45 35.9513 109.991 39.0582 110.218 40.7689C110.301 41.3945 110.448 41.632 110.489 41.687C110.544 41.7098 110.682 41.7474 110.962 41.7474C112.956 41.7474 114.893 40.8063 116.639 39.3386C118.382 37.8741 119.628 36.1351 120.152 35.2054L121.849 32.193L127.874 35.5875L126.177 38.6C125.3 40.1554 123.546 42.5676 121.088 44.633C118.634 46.6952 115.17 48.6628 110.962 48.6628C109.059 48.6628 107.168 48.0959 105.692 46.6707C104.261 45.2895 103.6 43.4672 103.362 41.6778C102.906 38.2351 103.867 33.8247 105.707 28.9596L115.137 1.00598L121.689 3.2164ZM110.459 41.6698C110.46 41.669 110.469 41.6729 110.482 41.684C110.465 41.6762 110.458 41.6706 110.459 41.6698Z" fill="#282828"/>
  <path fill-rule="evenodd" clip-rule="evenodd" d="M148.007 30.4773C147.12 32.3151 145.491 33.8843 143.466 35.2154C140.18 37.3759 136.267 38.6381 132.893 39.1124C131.199 39.3505 129.519 39.4077 128.026 39.2239C127.967 39.2167 127.908 39.209 127.848 39.2007C127.864 39.2637 127.881 39.3266 127.9 39.3894C128.172 40.32 128.751 40.9615 129.824 41.4166C131.011 41.9195 132.765 42.1524 134.983 41.9457C139.433 41.5311 144.632 39.454 148.198 36.5808L150.89 34.4113L155.229 39.7961L152.537 41.9656C147.902 45.7005 141.414 48.2919 135.625 48.8313C132.723 49.1016 129.719 48.8829 127.126 47.7836C124.419 46.6365 122.197 44.5252 121.262 41.3306C119.62 35.7153 121.824 30.5476 125.028 26.9484C128.188 23.3983 132.776 20.8199 137.131 20.4161C139.32 20.2131 141.405 20.3841 143.206 20.9554C144.962 21.5123 146.752 22.557 147.824 24.3289C148.997 26.2671 148.962 28.4985 148.007 30.4773ZM141.115 27.5471C140.369 27.3106 139.24 27.1657 137.77 27.3019C135.457 27.5165 132.404 29.0633 130.193 31.5466C129.941 31.8297 129.706 32.1175 129.489 32.4091C130.158 32.4363 130.985 32.3972 131.93 32.2643C134.471 31.9071 137.376 30.9436 139.667 29.4372C140.783 28.7029 141.347 28.1094 141.612 27.7428C141.49 27.6825 141.328 27.6147 141.115 27.5471Z" fill="#282828"/>
  <path fill-rule="evenodd" clip-rule="evenodd" d="M83.4404 16.5845L86.7845 17.4636C97.6154 20.311 108.998 20.311 119.829 17.4636L123.173 16.5845L124.932 23.2726L121.587 24.1518C109.604 27.3022 97.0097 27.3022 85.0262 24.1518L81.6821 23.2726L83.4404 16.5845Z" fill="#282828"/>
</svg>
