<svg width="10" height="11" viewBox="0 0 10 11" fill="none" xmlns="http://www.w3.org/2000/svg">
<path d="M4.604 8.104V4.24H5.396V8.104H4.604ZM5 3.688C4.84 3.688 4.72 3.648 4.64 3.568C4.56 3.488 4.52 3.372 4.52 3.22C4.52 3.06 4.56 2.944 4.64 2.872C4.72 2.792 4.84 2.752 5 2.752C5.128 2.752 5.236 2.792 5.324 2.872C5.42 2.944 5.468 3.06 5.468 3.22C5.468 3.38 5.42 3.5 5.324 3.58C5.236 3.652 5.128 3.688 5 3.688ZM5 10.66C4.32 10.66 3.68 10.532 3.08 10.276C2.48 10.02 1.952 9.668 1.496 9.22C1.048 8.764 0.696 8.236 0.44 7.636C0.184 7.036 0.0560001 6.396 0.0560001 5.716C0.0560001 5.028 0.184 4.388 0.44 3.796C0.696 3.196 1.048 2.672 1.496 2.224C1.952 1.768 2.48 1.412 3.08 1.156C3.68 0.899999 4.32 0.771999 5 0.771999C5.688 0.771999 6.328 0.899999 6.92 1.156C7.52 1.412 8.044 1.768 8.492 2.224C8.948 2.672 9.304 3.196 9.56 3.796C9.816 4.388 9.944 5.028 9.944 5.716C9.944 6.396 9.816 7.036 9.56 7.636C9.304 8.236 8.948 8.764 8.492 9.22C8.044 9.668 7.52 10.02 6.92 10.276C6.328 10.532 5.688 10.66 5 10.66ZM5 9.988C5.592 9.988 6.144 9.88 6.656 9.664C7.176 9.44 7.632 9.132 8.024 8.74C8.416 8.348 8.72 7.896 8.936 7.384C9.16 6.864 9.272 6.308 9.272 5.716C9.272 5.124 9.16 4.572 8.936 4.06C8.72 3.54 8.416 3.084 8.024 2.692C7.632 2.3 7.176 1.996 6.656 1.78C6.144 1.556 5.592 1.444 5 1.444C4.408 1.444 3.852 1.556 3.332 1.78C2.82 1.996 2.368 2.3 1.976 2.692C1.584 3.084 1.276 3.54 1.052 4.06C0.836 4.572 0.728 5.124 0.728 5.716C0.728 6.308 0.836 6.864 1.052 7.384C1.276 7.896 1.584 8.348 1.976 8.74C2.368 9.132 2.82 9.44 3.332 9.664C3.852 9.88 4.408 9.988 5 9.988Z" fill="#A2A09E"/>
</svg>
