<svg width="16" height="16" viewBox="0 0 16 16" fill="none" xmlns="http://www.w3.org/2000/svg">
<rect width="16" height="16" rx="4" fill="white"/>
<rect width="16" height="16" rx="2" fill="#454342"/>
<mask id="mask0_322_14228" style="mask-type:alpha" maskUnits="userSpaceOnUse" x="0" y="0" width="16" height="16">
<rect width="16" height="16" fill="#D9D9D9"/>
</mask>
<g mask="url(#mask0_322_14228)">
</g>
<path d="M6.41426 10.2539L11.8862 4.21381C12.0154 4.07127 12.1687 4 12.3463 4C12.5238 4 12.6772 4.07127 12.8063 4.21381C12.9354 4.35635 13 4.52561 13 4.7216C13 4.91759 12.9354 5.08686 12.8063 5.2294L6.86622 11.7862C6.73709 11.9287 6.58643 12 6.41426 12C6.24208 12 6.09143 11.9287 5.96229 11.7862L3.18595 8.7216C3.05682 8.57906 2.99494 8.4098 3.00032 8.21381C3.0057 8.01782 3.07296 7.84855 3.20209 7.70601C3.33122 7.56347 3.48457 7.49221 3.66213 7.49221C3.83968 7.49221 3.99303 7.56347 4.12216 7.70601L6.41426 10.2539Z" fill="white"/>
</svg>
