<svg width="12" height="12" viewBox="0 0 12 12" fill="none" xmlns="http://www.w3.org/2000/svg">
<path fill-rule="evenodd" clip-rule="evenodd" d="M5 5.10168L6.30669 2.02938C6.42064 2.08113 6.49988 2.19593 6.49988 2.32924V5.00006H8.70256C9.32646 5.00006 9.79804 5.56511 9.68643 6.17895L9.08259 9.50006H5V5.10168ZM4.16927 4.49988L5.46939 1.443L5.47627 1.42924C5.60779 1.16621 5.87662 1.00006 6.1707 1.00006C6.90478 1.00006 7.49988 1.59516 7.49988 2.32924V4.00006H8.70256C9.95037 4.00006 10.8935 5.13015 10.6703 6.35783L10.0665 9.67895C9.98001 10.1544 9.56588 10.5001 9.08259 10.5001H3.99988V10.4999H2.5C1.94772 10.4999 1.5 10.0522 1.5 9.49988V5.49988C1.5 4.94759 1.94772 4.49988 2.5 4.49988H4.16927ZM3.99988 5.49988H2.5V9.49988H3.99988V5.49988Z" fill="#F39945"/>
</svg>
