<svg width="17" height="17" viewBox="0 0 17 17" fill="none" xmlns="http://www.w3.org/2000/svg">
<path fill-rule="evenodd" clip-rule="evenodd" d="M7.16667 7.30233L8.90892 3.20591C9.06085 3.27493 9.1665 3.42799 9.1665 3.60574V7.16683H12.1034C12.9353 7.16683 13.564 7.92022 13.4152 8.73868L12.6101 13.1668H7.16667V7.30233ZM6.05902 6.49992L7.79252 2.42408L7.80169 2.40574C7.97705 2.05503 8.3355 1.8335 8.7276 1.8335C9.70638 1.8335 10.4998 2.62695 10.4998 3.60574V5.8335H12.1034C13.7672 5.8335 15.0247 7.34028 14.7271 8.97719L13.9219 13.4053C13.8067 14.0393 13.2545 14.5002 12.6101 14.5002H5.83317V14.4999H3.83333C3.09695 14.4999 2.5 13.903 2.5 13.1666V7.83325C2.5 7.09687 3.09695 6.49992 3.83333 6.49992H6.05902ZM5.83317 7.83325H3.83333V13.1666H5.83317V7.83325Z" fill="white"/>
</svg>
