<svg width="24" height="24" viewBox="0 0 24 24" fill="none" xmlns="http://www.w3.org/2000/svg">
<path d="M18.6897 6.80861C19.1034 6.39484 19.1034 5.72398 18.6897 5.31021C18.2759 4.89643 17.605 4.89643 17.1913 5.31021L12 10.5015L6.80873 5.31021C6.39496 4.89644 5.7241 4.89643 5.31033 5.31021C4.89656 5.72398 4.89656 6.39484 5.31033 6.80861L10.5016 11.9999L5.31033 17.1912C4.89656 17.6049 4.89656 18.2758 5.31033 18.6896C5.7241 19.1033 6.39496 19.1033 6.80873 18.6896L12 13.4983L17.1913 18.6896C17.605 19.1033 18.2759 19.1033 18.6897 18.6896C19.1034 18.2758 19.1034 17.6049 18.6897 17.1912L13.4984 11.9999L18.6897 6.80861Z" fill="#242221"/>
<path d="M18.6897 6.80861C19.1034 6.39484 19.1034 5.72398 18.6897 5.31021C18.2759 4.89643 17.605 4.89643 17.1913 5.31021L12 10.5015L6.80873 5.31021C6.39496 4.89644 5.7241 4.89643 5.31033 5.31021C4.89656 5.72398 4.89656 6.39484 5.31033 6.80861L10.5016 11.9999L5.31033 17.1912C4.89656 17.6049 4.89656 18.2758 5.31033 18.6896C5.7241 19.1033 6.39496 19.1033 6.80873 18.6896L12 13.4983L17.1913 18.6896C17.605 19.1033 18.2759 19.1033 18.6897 18.6896C19.1034 18.2758 19.1034 17.6049 18.6897 17.1912L13.4984 11.9999L18.6897 6.80861Z" fill="black" fill-opacity="0.2"/>
<path d="M18.6897 6.80861C19.1034 6.39484 19.1034 5.72398 18.6897 5.31021C18.2759 4.89643 17.605 4.89643 17.1913 5.31021L12 10.5015L6.80873 5.31021C6.39496 4.89644 5.7241 4.89643 5.31033 5.31021C4.89656 5.72398 4.89656 6.39484 5.31033 6.80861L10.5016 11.9999L5.31033 17.1912C4.89656 17.6049 4.89656 18.2758 5.31033 18.6896C5.7241 19.1033 6.39496 19.1033 6.80873 18.6896L12 13.4983L17.1913 18.6896C17.605 19.1033 18.2759 19.1033 18.6897 18.6896C19.1034 18.2758 19.1034 17.6049 18.6897 17.1912L13.4984 11.9999L18.6897 6.80861Z" fill="black" fill-opacity="0.2"/>
<path d="M18.6897 6.80861C19.1034 6.39484 19.1034 5.72398 18.6897 5.31021C18.2759 4.89643 17.605 4.89643 17.1913 5.31021L12 10.5015L6.80873 5.31021C6.39496 4.89644 5.7241 4.89643 5.31033 5.31021C4.89656 5.72398 4.89656 6.39484 5.31033 6.80861L10.5016 11.9999L5.31033 17.1912C4.89656 17.6049 4.89656 18.2758 5.31033 18.6896C5.7241 19.1033 6.39496 19.1033 6.80873 18.6896L12 13.4983L17.1913 18.6896C17.605 19.1033 18.2759 19.1033 18.6897 18.6896C19.1034 18.2758 19.1034 17.6049 18.6897 17.1912L13.4984 11.9999L18.6897 6.80861Z" fill="black" fill-opacity="0.2"/>
<path d="M18.6897 6.80861C19.1034 6.39484 19.1034 5.72398 18.6897 5.31021C18.2759 4.89643 17.605 4.89643 17.1913 5.31021L12 10.5015L6.80873 5.31021C6.39496 4.89644 5.7241 4.89643 5.31033 5.31021C4.89656 5.72398 4.89656 6.39484 5.31033 6.80861L10.5016 11.9999L5.31033 17.1912C4.89656 17.6049 4.89656 18.2758 5.31033 18.6896C5.7241 19.1033 6.39496 19.1033 6.80873 18.6896L12 13.4983L17.1913 18.6896C17.605 19.1033 18.2759 19.1033 18.6897 18.6896C19.1034 18.2758 19.1034 17.6049 18.6897 17.1912L13.4984 11.9999L18.6897 6.80861Z" fill="black" fill-opacity="0.2"/>
</svg>
